<svg xmlns="http://www.w3.org/2000/svg" width="512" height="512"><path fill="#2D365F" d="M295 22c2.346 4.357 3.838 8.518 5.09 13.3l.57 2.153c.622 2.357 1.235 4.716 1.848 7.074l1.329 5.046c1.19 4.517 2.373 9.036 3.554 13.556 1.969 7.531 3.951 15.06 5.932 22.588l1.505 5.721c3.21 12.216 6.47 24.416 9.817 36.595.615 2.239 1.23 4.478 1.842 6.717a3928.811 3928.811 0 0 0 5.131 18.587c.854 3.069 1.693 6.142 2.534 9.214l.931 3.284c2.446 9.014 2.446 9.014.917 14.165-19.685 5.929-39.533 11.196-59.409 16.44-7.893 2.085-15.785 4.176-23.677 6.267l-2.613.692c-11 2.914-21.99 5.859-32.965 8.863l-3.456.944a4356.29 4356.29 0 0 0-15.384 4.238l-5.285 1.45-2.343.66c-7.48 2.04-7.48 2.04-10.868 1.446-2.976-3.172-3.879-6.424-4.967-10.58l-.53-1.995c-.583-2.198-1.152-4.4-1.722-6.6-.414-1.574-.83-3.147-1.245-4.72a4249.86 4249.86 0 0 1-3.343-12.763c-1.867-7.153-3.75-14.301-5.631-21.45l-2.178-8.297a3436.038 3436.038 0 0 0-9.376-34.933 6544.009 6544.009 0 0 1-2.712-9.939l-1.31-4.808a2620.287 2620.287 0 0 0-3.215-11.698c-1.012-3.646-2.01-7.296-2.997-10.95a485.874 485.874 0 0 0-1.106-3.994c-.509-1.81-.997-3.626-1.484-5.441l-.845-3.067c-.404-3.29-.013-4.916 1.661-7.765 1.725-1.019 1.725-1.019 3.82-1.577l2.377-.667c.849-.214 1.698-.43 2.573-.65l2.645-.719c1.848-.498 3.698-.985 5.551-1.464 2.83-.731 5.652-1.491 8.473-2.257 1.798-.48 3.595-.959 5.393-1.436l2.554-.681c3.951-1.016 7.496-1.847 11.614-1.549 2.688 8.18 4.94 16.444 7.094 24.777l.834 3.217c1.152 4.442 2.302 8.885 3.436 13.332.837 3.278 1.688 6.553 2.542 9.826l.761 3.03c1.405 5.338 2.84 9.506 6.333 13.818 3.15 1.575 5.52 1.348 9 1 5.244-3.626 8.16-7.877 11.375-13.313l1.363-2.244A728.203 728.203 0 0 0 230 99c5.569.681 10.037 3.509 14.854 6.205 4.984 2.638 8.5 3.358 14.146 2.795 2.431-1.87 3.64-3.281 5-6 .721-7.134-1.585-13.671-3.5-20.484a2844.303 2844.303 0 0 0-3.917-14.172 5542.451 5542.451 0 0 1-4.548-16.453c-.528-1.913-1.062-3.824-1.596-5.735l-.97-3.51-.862-3.092C248 36 248 36 248 33a2912.993 2912.993 0 0 1 21-6l2.747-.775c2.54-.71 5.083-1.408 7.628-2.1l2.318-.651c4.582-1.228 8.563-1.687 13.307-1.474ZM340 191c2.707 3.772 3.891 7.55 5.085 12.006l.563 2.076c.608 2.252 1.205 4.507 1.801 6.762l1.265 4.718c.882 3.29 1.758 6.582 2.63 9.875 1.117 4.216 2.246 8.428 3.38 12.64.872 3.245 1.737 6.491 2.601 9.738.414 1.554.83 3.107 1.248 4.66.583 2.172 1.158 4.345 1.73 6.52l.996 3.742c.62 2.89.852 5.326.701 8.263-5.202-.672-8.413-4.694-12.148-8.066-3.421-2.32-4.793-2.45-8.852-1.934-2.711 1.839-2.711 1.839-5.145 4.453l-2.798 2.817-1.427 1.482a328.618 328.618 0 0 1-4.37 4.432c-5.66 5.06-5.66 5.06-8.26 11.816 1.698 3.042 3.62 5.549 5.863 8.21l1.95 2.353 1.894 2.19C330 302 330 302 329.859 304.353c-1.038 3.2-2.188 6.33-3.421 9.46l-1.38 3.52L324 320l-3.578.367-4.672.508-2.355.238-2.286.254-2.094.222c-2.256.46-4.006 1.304-6.015 2.411-.05 4.805-.086 9.61-.11 14.417-.01 1.635-.024 3.27-.04 4.906-.025 2.348-.036 4.696-.045 7.044l-.032 2.223c0 1.805.105 3.61.227 5.41 2.873 2.873 6.067 2.671 9.938 3.063 7.73.827 7.73.827 11.062 1.937v2c-18.54 5.49-37.262 10.244-56 15l-2.352-2.746c-11.074-12.614-23.976-22.699-40.847-26.16l-2.19-.466a87.429 87.429 0 0 0-4.269-.758c-1.97-.39-1.97-.39-5.342-1.87-2.584-5.83-4.179-11.934-5.82-18.084l-.798-2.96c-.865-3.206-1.723-6.413-2.581-9.62l-1.803-6.716a13008.37 13008.37 0 0 1-3.76-14.046 8415.239 8415.239 0 0 0-4.832-17.99c-1.243-4.617-2.48-9.236-3.714-13.856-.592-2.212-1.186-4.423-1.783-6.633a2498.1 2498.1 0 0 1-2.478-9.27c-.248-.91-.496-1.82-.75-2.758-1.177-4.467-1.978-8.4-1.681-13.067 4.815-2.639 9.522-4.14 14.793-5.516l2.509-.667c1.74-.46 3.48-.917 5.221-1.37 2.67-.698 5.334-1.412 7.998-2.127l5.084-1.336 2.415-.65c5.636-1.449 5.636-1.449 8.98-.334.973 2.478.973 2.478 1.822 5.817l.982 3.773.509 2.03c.526 2.097 1.07 4.189 1.618 6.28a2973.196 2973.196 0 0 1 4.593 17.861c.93 3.643 1.876 7.28 2.831 10.916a644.661 644.661 0 0 1 1.564 6.177l1 3.811.855 3.349c1.473 3.587 3.283 5.493 6.226 7.986 3.486 1.162 5.108 1.43 8.438-.176 2.89-2.057 4.532-4.11 6.562-7.012l1.938-2.73c2.438-3.644 4.761-7.35 7.062-11.082l1.617.81c2.455 1.222 4.919 2.425 7.383 3.627l2.543 1.276c6.133 2.971 11.414 4.814 18.332 3.912 2.83-2.165 3.275-4.412 3.956-7.824.347-5.752-1.557-11.152-3.136-16.63-.363-1.319-.725-2.64-1.084-3.96-.946-3.456-1.915-6.904-2.89-10.351-1.56-5.529-3.084-11.067-4.608-16.605-.534-1.926-1.078-3.849-1.622-5.771l-.99-3.551-.88-3.114c-.597-2.71-.743-5.056-.621-7.819a6471.8 6471.8 0 0 1 17.242-4.7c1.955-.531 3.91-1.064 5.864-1.6 2.81-.77 5.623-1.533 8.437-2.294l2.64-.729c8.761-2.352 8.761-2.352 11.817-1.677ZM116.938 41.063c4.513 4.24 5.798 11.078 7.333 16.904l.63 2.34c.689 2.564 1.37 5.13 2.052 7.697l1.479 5.514c1.333 4.974 2.66 9.949 3.986 14.924 1.402 5.258 2.81 10.514 4.218 15.77 2.615 9.77 5.226 19.54 7.834 29.311 2.598 9.732 5.2 19.463 7.804 29.193a240095.194 240095.194 0 0 1 9.237 34.535 86514.806 86514.806 0 0 0 21.725 81.141 40555.395 40555.395 0 0 0 4.5 16.781 3312.239 3312.239 0 0 0 6.894 25.364l1.275 4.623a2453.52 2453.52 0 0 0 2.41 8.675l1.072 3.88.948 3.4C201 344 201 344 201 348l-3.113.516c-7.5 1.293-14.554 2.773-21.653 5.617-2.07.803-4.08 1.35-6.234 1.867a46248.293 46248.293 0 0 1-31.08-115.506c-5.505-20.539-11.007-41.079-16.503-61.62l-7.245-27.062-5.16-19.285c-1.064-3.98-2.13-7.96-3.196-11.94l-1.475-5.518c-3.496-18.572-3.496-18.572-14.028-32.882-7.126-2.554-13.969-1.087-21.04 1l-2.4.673c-2.502.702-5 1.42-7.498 2.14-2.505.72-5.01 1.435-7.52 2.14-1.553.436-3.104.88-4.652 1.335C43.717 90.738 39.705 91.483 35 91c-2.73-1.845-3.518-3.873-4.387-6.984l-.654-2.336-.646-2.43-.682-2.383C27.348 72.173 26.476 67.904 27 63c2.424-3.483 6.077-4.144 9.975-5.177l2.14-.592a1050.41 1050.41 0 0 1 7.014-1.899L51.02 54c3.423-.93 6.847-1.854 10.272-2.771a2232.9 2232.9 0 0 0 13.096-3.561c3.37-.923 6.743-1.834 10.118-2.741 1.608-.434 3.216-.873 4.823-1.315 19.706-5.408 19.706-5.408 27.608-2.55ZM242 369c15.125 10.72 23.862 24.331 28.586 42.219 2.842 19.087-.704 36.911-11.691 52.832C248.265 477.652 233.926 486.583 217 490c-3.783.403-7.51.478-11.313.438l-3.042-.026c-17.478-.395-32.51-7.248-44.918-19.525-12.272-12.993-18.32-28.597-19.102-46.387.487-11.042 3-21.835 8.375-31.5l1.527-2.766c9.254-15.59 23.175-25.256 40.473-30.234 18.173-4.11 37.435-1.174 53 9Zm-64.656 37.082c-5.21 7.677-6.557 16.365-4.88 25.43 2.442 9.432 8.408 17.12 16.536 22.488 9.506 4.343 17.515 5.315 27.48 2.04 9.105-3.756 15.914-9.875 19.833-18.915 3.305-9.155 3.598-17.75-.504-26.734-5.614-10.095-13.387-15.985-24.434-19.141-14.18-1.493-25.177 3.702-34.031 14.832Z"/><path fill="#FF6859" d="M389 255h19c1.765 3.53 1.784 7.695 2.25 11.59.435 3.826.435 3.826 1.75 7.41a148.757 148.757 0 0 0 7.563 2.875c4.539 1.622 8.87 3.213 13.062 5.625 3.225 1.834 3.225 1.834 6.266.855 4.29-1.87 7.272-4.687 10.742-7.773C452 274 452 274 453.973 273.965c2.93 1.496 4.991 3.488 7.34 5.785l2.738 2.61C466 285 466 285 466.043 287.511c-1.264 3.016-2.904 5.08-5.043 7.55-3.647 3.955-3.647 3.955-5 8.938 1.06 2.696 1.06 2.696 2.688 5.5 2.332 4.345 3.92 8.364 5.187 13.125 1.103 3.853 1.103 3.853 3.832 6.535 2.146.572 4.074.755 6.293.84 1.626.181 3.25.369 4.875.563l2.242.19C483 331 483 331 485 332v19c-7.75.75-7.75.75-10.17.956-3.228.36-5.518.825-8.19 2.7-2.042 2.918-3.045 5.707-4.14 9.094-1.387 4.16-2.772 8-4.938 11.813-1.896 3.206-1.896 3.206-.921 5.835 2.032 3.89 4.89 6.919 7.777 10.2C466 394 466 394 466.086 395.949c-1.655 3.126-4.114 5.39-6.649 7.801l-1.576 1.535A609.586 609.586 0 0 1 454 409c-1.398-.914-2.793-1.831-4.188-2.75l-2.503-1.645C445 403 445 403 442.375 400.562c-2.336-1.839-2.336-1.839-5.5-1.625-4.258.906-8.103 2.858-12.012 4.723-3.594 1.682-7.262 3.118-10.965 4.543-1.873.646-1.873.646-2.898 1.797-.375 2.48-.706 4.948-1 7.438-.867 7.296-.867 7.296-2 9.562h-19c-.875-7.813-.875-7.813-1.136-10.261-.428-3.603-.821-5.675-2.864-8.739a109.25 109.25 0 0 0-7.75-3 966.923 966.923 0 0 1-4.234-1.5l-2.08-.734C369 402 369 402 365.922 400.25c-3.85-1.647-5.91-1.366-9.922-.25-3.149 2.009-3.149 2.009-5.938 4.563l-2.902 2.503L345 409a185.904 185.904 0 0 1-14-13l1.172-1.54a503.772 503.772 0 0 0 3.223-4.308 210.403 210.403 0 0 1 4.043-5.214c2.117-3.981 1.771-5.598.562-9.938a145.911 145.911 0 0 0-3.695-8.14C335 364 335 364 334.133 361.14c-.814-2.681-1.548-4.825-3.133-7.14-3.287-1.547-6.409-1.767-10-2l-8-1v-19c8.313-1.25 8.313-1.25 10.92-1.614 4.394-.693 4.394-.693 8.002-3.132 1.265-2.646 2.175-5.256 3.015-8.067 1.145-3.635 2.273-6.84 4.313-10.062 2.025-3.616 2.282-5.046 1.75-9.125-1.399-2.52-3.153-4.669-5-6.875l-1.445-1.797A383.238 383.238 0 0 0 331 287c1.97-2.36 3.974-4.688 6-7l1.594-1.836c1.531-1.664 1.531-1.664 4.406-4.164 5.16.156 9.264 5.072 13.027 8.164 2.758 2.081 2.758 2.081 5.563 1.754a57.952 57.952 0 0 0 7.035-3.23c4.585-2.39 9.207-4.117 14.125-5.696 2.572-.893 2.572-.893 4.25-3.992.459-2.749.83-5.423 1.125-8.188L389 255Zm-28 51c-11.04 13.253-14.073 27.206-13 44 .582 3.585 1.558 6.675 3 10l.96 2.434c5.02 11.407 14.422 20.926 25.907 25.777 12.547 4.692 27.561 6.474 40.133.789 14.255-6.555 23.862-16.118 29.375-30.938A157.285 157.285 0 0 0 449 353l.586-1.875c2.562-13.15-.473-26.907-7.586-38.125-9.286-12.032-20.642-20.667-36-23-17.199-1.117-32.948 3.129-45 16Z"/><path fill="#FF6859" d="m393 301 .113 2.484.2 3.266.175 3.234c.543 3.198 1.363 4.642 3.512 7.016 3.29-.379 3.29-.379 6-2 .235-2.35.414-4.706.563-7.063l.253-3.91L404 301c11.51 2.22 20.608 6.673 28 16 3.79 6.053 5.758 12.001 7 19l-14 1-2 5c2.261 2.744 3.476 3.894 7.016 4.61l3.234.14 3.266.172L439 347c-1.205 7.473-3.784 12.747-8 19l-1.813 2.75c-6.133 6.308-13.781 9.907-22.187 12.25h-3l-.184-3.027-.253-3.91-.247-3.903c.035-3.02.035-3.02-1.316-4.16-2.958-.333-2.958-.333-6 0-2.27 3.404-2.365 5.165-2.625 9.188l-.227 3.292L393 381c-10.957-1.928-19.995-6.176-26.73-15.36-3.419-5.435-7.27-12.029-7.27-18.64l2.484-.078 3.266-.172 3.234-.14c3.54-.716 4.755-1.866 7.016-4.61l-2-5-14-1c1.443-10.099 5.119-18.245 13-25l1.668-1.488C378.726 305.309 386.209 301 393 301Zm1.785 24.063C391.571 330.35 392.23 336.022 393 342c1.398 3.648 1.398 3.648 5 5 4.963.737 10.46 1.47 14.957-1.133 1.53-1.458 1.53-1.458 3.043-3.867-1.088-3.25-1.088-3.25-3-6a74.456 74.456 0 0 0-4.563-.063l-2.503.028L404 336l.105-2.082.082-2.73.106-2.708c-.1-2.505-.1-2.505-1.555-4.304-3.23-2.186-5.236-1.643-7.953.887Z"/><path fill="#2D365F" d="m238 36 16 60c-3 1-3 1-6.512-.652a344.494 344.494 0 0 1-6.244-3.455C236.221 89.203 232.71 88.147 227 89c-4.467 3.368-7.304 8.155-10.313 12.813l-1.376 2.1c-1.11 1.692-2.21 3.389-3.311 5.087-2-1-2-1-2.81-3.213l-.794-2.962-.91-3.348-.963-3.649-1-3.726c-.698-2.609-1.393-5.218-2.083-7.829-.882-3.339-1.777-6.675-2.676-10.01-.858-3.185-1.705-6.372-2.553-9.56l-.975-3.624-.89-3.387-.79-2.971c-.543-2.658-.662-5.018-.556-7.721 5.64-1.571 11.282-3.138 16.925-4.7 1.92-.532 3.84-1.065 5.759-1.6 2.757-.768 5.515-1.532 8.273-2.294l2.604-.729 2.427-.667 2.133-.592C235 36 235 36 238 36ZM283 206c4.218 14.042 8.17 28.144 11.938 42.313l.614 2.296c.58 2.167 1.153 4.335 1.725 6.504l1.008 3.806C299 264 299 264 299 267c-3.971-1.189-7.472-2.715-11.1-4.719-6.315-3.593-6.315-3.593-13.337-4.781-5.274 2.22-7.469 5.824-10.563 10.5-1.31 1.855-2.623 3.71-3.938 5.563A1397.268 1397.268 0 0 0 257 278c-2.42-2.42-2.725-4.027-3.604-7.32l-.91-3.368-.963-3.652-1-3.736c-.697-2.611-1.392-5.223-2.083-7.836-.885-3.349-1.779-6.695-2.676-10.04-.855-3.191-1.704-6.383-2.553-9.575l-.975-3.646-.89-3.378-.79-2.976C240 220 240 220 240 217c8.777-2.86 17.657-5.325 26.563-7.75l3.497-.963 3.319-.896 2.986-.812C279 206 279 206 283 206ZM219 406c5.443 4.293 8.14 10.194 9 17-.354 7.904-2.522 13.619-8.25 19.188-5.608 3.696-10.966 5.539-17.75 4.812-6.567-1.473-11.598-4.95-16-10-3.168-5.202-3.885-11.03-3-17 1.913-7.158 5.858-11.936 12-16 8.568-3.457 16.061-2.415 24 2ZM329 375c.805 2.09.805 2.09 1 5-1.547 2.403-3.031 4.415-4.875 6.563-4.394 4.635-4.394 4.635-6.125 10.437 1.341 2.13 1.341 2.13 3.313 4.063 2.159 2.281 3.934 4.307 5.687 6.937-5.309 2.064-10.572 3.814-16.078 5.262l-2.224.592c-1.535.408-3.072.814-4.608 1.218-2.35.618-4.696 1.246-7.043 1.875l-4.5 1.19-2.115.568c-3.303.86-5.986 1.295-9.432 1.295l-.48-3.043c-1.388-8.288-3.263-15.708-6.532-23.48C274 391 274 391 274 389c7.35-2 14.7-3.992 22.052-5.981 2.502-.678 5.004-1.357 7.505-2.038 3.59-.976 7.183-1.948 10.775-2.918l3.4-.928 3.154-.85 2.78-.754C326 375 326 375 329 375Z"/></svg>